<svg width="178" height="28" viewBox="0 0 178 28" fill="none" xmlns="http://www.w3.org/2000/svg">
<path d="M27.0281 0.00871143C27.8835 -0.0349082 28.6347 0.179556 29.3508 0.535783C37.2545 4.47609 45.1569 8.41882 53.0605 12.3567C53.7294 12.6899 54.1425 13.1964 54.1498 13.9597C54.1571 14.7303 53.733 15.2235 53.0605 15.5543C51.3303 16.4049 49.6012 17.2591 47.8843 18.1351C47.5172 18.3229 47.2288 18.3399 46.8484 18.1484C41.3123 15.3604 35.7678 12.5881 30.2232 9.81708C29.4817 9.44631 28.7389 9.0816 27.9065 8.93863C27.0014 8.78353 26.1278 8.87925 25.2809 9.21246C24.8374 9.38694 24.4024 9.58444 23.9759 9.79769C18.4302 12.5663 12.8856 15.3362 7.34712 18.1193C6.96061 18.3132 6.65648 18.3435 6.25542 18.1375C4.54214 17.2542 2.80826 16.4085 1.08286 15.5494C0.445528 15.232 0.0214473 14.7631 0.000849091 14.0106C-0.0197491 13.2655 0.335266 12.7408 0.973809 12.4052C1.70807 12.0211 2.45567 11.6612 3.19841 11.2917C10.2854 7.75847 17.3724 4.22649 24.4581 0.690875C25.2869 0.278912 26.1266 -0.0591414 27.0281 0.00871143Z" fill="#1943D0"/>
<path d="M16.899 23.4314C14.34 22.1531 11.8186 20.8917 9.29709 19.6292C9.26438 19.6135 9.24741 19.5662 9.19531 19.4983C9.32981 19.4172 9.45582 19.3275 9.59274 19.2584C14.8126 16.6243 20.036 13.9986 25.2498 11.3524C26.4966 10.7187 27.6791 10.7296 28.9308 11.3657C34.1046 13.9974 39.2965 16.5964 44.4812 19.2088C44.6448 19.2911 44.7999 19.3881 45.0216 19.5141C44.8132 19.6328 44.6605 19.731 44.4994 19.8122C42.236 20.9414 39.9678 22.061 37.7117 23.2048C37.3809 23.372 37.1276 23.3805 36.7957 23.2096C34.6001 22.084 32.401 20.9657 30.1848 19.88C29.5015 19.5444 28.7793 19.2609 28.0463 19.0573C27.0551 18.7823 26.0592 18.9289 25.1298 19.3505C24.0733 19.8303 23.0373 20.3562 21.9977 20.8724C20.3111 21.7145 18.6281 22.5638 16.899 23.4314Z" fill="#1944D0"/>
<path d="M88.1155 10.6448C88.1155 8.41414 88.1155 6.24648 88.1155 4.04248C89.6506 4.04248 91.1337 4.04248 92.658 4.04248C92.658 10.5769 92.658 17.1029 92.658 23.6313C92.246 23.7574 88.8776 23.7876 88.1276 23.6616C88.1276 23.0764 88.1276 22.4827 88.1276 21.769C87.964 21.9181 87.8731 21.9811 87.8065 22.0635C86.9183 23.1491 85.7515 23.7222 84.3823 23.8906C81.7276 24.2154 79.3152 23.0667 78.0769 20.6955C76.486 17.6506 76.4823 14.5269 78.2513 11.5523C79.9319 8.72674 83.6032 7.78892 86.4155 9.36044C87.0007 9.68759 87.4987 10.1723 88.1155 10.6448ZM88.1724 16.3166C88.0755 15.8113 88.027 15.2915 87.8719 14.8032C87.4612 13.5067 86.2652 12.6404 84.9312 12.6137C83.5633 12.5871 82.3395 13.4231 81.8827 14.739C81.5168 15.7919 81.5325 16.8606 81.9227 17.9026C82.4037 19.1846 83.6008 19.9685 84.9663 19.9406C86.2786 19.914 87.4418 19.0719 87.8634 17.7899C88.0161 17.3222 88.0694 16.823 88.1724 16.3166Z" fill="#1A44D1"/>
<path d="M162.698 4.02295C164.203 4.02295 165.672 4.02295 167.206 4.02295C167.206 6.20757 167.206 8.37643 167.206 10.5768C167.529 10.5429 167.632 10.3139 167.781 10.1685C169.784 8.19347 174.165 8.00082 176.178 10.7028C176.881 11.6455 177.249 12.7057 177.378 13.8604C177.419 14.2312 177.448 14.6056 177.448 14.9775C177.453 17.7983 177.45 20.619 177.449 23.4397C177.449 23.5015 177.433 23.5621 177.425 23.6215C177 23.7584 173.991 23.8008 172.896 23.676C172.896 23.4725 172.896 23.2532 172.896 23.0351C172.896 20.5875 172.907 18.14 172.886 15.6936C172.882 15.2247 172.813 14.7364 172.67 14.2905C172.35 13.2921 171.626 12.719 170.59 12.5663C168.748 12.2949 167.463 13.2873 167.259 15.1278C167.23 15.3943 167.226 15.6658 167.226 15.9347C167.224 18.2781 167.225 20.6226 167.225 22.966C167.225 23.1914 167.225 23.4167 167.225 23.6869C165.701 23.6869 164.219 23.6869 162.734 23.6869C162.612 23.2725 162.57 4.92079 162.698 4.02295Z" fill="#1943D0"/>
<path d="M63.5899 5.04443C67.3485 5.04443 71.1131 5.04443 74.8802 5.04443C75.0062 5.46124 75.0413 7.7222 74.9262 8.65638C72.6858 8.65638 70.437 8.65638 68.2064 8.65638C68.0622 9.13983 68.0319 11.5741 68.1543 12.4162C70.1402 12.4162 72.1394 12.4162 74.1616 12.4162C74.1616 13.6266 74.1616 14.7619 74.1616 15.9724C72.1515 15.9724 70.1535 15.9724 68.1215 15.9724C68.1215 17.3476 68.1215 18.6465 68.1215 20.0229C68.6862 20.0763 69.2605 20.0411 69.8324 20.0472C70.3922 20.0532 70.952 20.0484 71.5118 20.0484C72.0921 20.0484 72.6725 20.0484 73.2529 20.0484C73.8103 20.0484 74.3676 20.0484 74.9529 20.0484C74.9529 21.2746 74.9529 22.4511 74.9529 23.6276C74.5227 23.7561 64.6623 23.8069 63.6142 23.6858C63.493 23.2472 63.4651 5.78112 63.5899 5.04443Z" fill="#1A44D1"/>
<path d="M143.591 17.3915C140.131 17.3915 136.758 17.3915 133.392 17.3915C133.235 18.7158 134.265 19.9977 135.616 20.1698C136.717 20.3091 137.686 20.0692 138.305 19.0393C138.412 18.8612 138.54 18.7752 138.753 18.7752C140.242 18.7812 141.732 18.7788 143.284 18.7788C143.24 18.9824 143.223 19.1399 143.172 19.2865C142.472 21.287 141.123 22.6767 139.15 23.4219C137.235 24.1453 135.283 24.1343 133.365 23.4473C131.067 22.6234 129.638 20.961 129.018 18.6177C128.607 17.068 128.606 15.4928 129.016 13.9419C129.703 11.3441 131.345 9.64293 133.947 8.92441C135.582 8.47247 137.238 8.48701 138.853 9.01408C141.423 9.85376 142.953 11.6494 143.505 14.2836C143.715 15.2844 143.693 16.2937 143.591 17.3915ZM133.329 14.7913C135.229 14.7913 137.079 14.7913 138.958 14.7913C138.979 13.9891 138.678 13.3845 138.094 12.9193C137.181 12.1935 135.711 12.0917 134.697 12.6781C133.887 13.1458 133.479 13.868 133.329 14.7913Z" fill="#1944D0"/>
<path d="M110.631 23.6952C109.147 23.6952 107.664 23.6952 106.111 23.6952C106.111 23.1136 106.111 22.5477 106.111 21.8498C105.922 22.0122 105.832 22.0788 105.754 22.1564C104.025 23.8963 101.941 24.2647 99.6767 23.5837C97.4787 22.9234 96.3858 21.2561 95.9835 19.0824C95.8975 18.6159 95.8575 18.1349 95.8551 17.6611C95.843 14.8622 95.849 12.0645 95.8502 9.26556C95.8502 9.16257 95.8611 9.06079 95.866 8.96144C96.3022 8.833 99.2853 8.79181 100.396 8.90449C100.396 9.11774 100.396 9.33826 100.396 9.55999C100.396 11.8403 100.394 14.1207 100.399 16.401C100.4 16.7742 100.411 17.1474 100.447 17.5182C100.593 19.0182 101.629 20.0008 103.101 20.0493C104.688 20.1014 105.793 19.2205 106.037 17.6926C106.085 17.3873 106.089 17.0735 106.09 16.7633C106.094 14.3788 106.092 11.9954 106.092 9.61089C106.092 9.38673 106.092 9.16257 106.092 8.89722C107.625 8.89722 109.106 8.89722 110.634 8.89722C110.631 13.8165 110.631 18.7371 110.631 23.6952Z" fill="#1944D0"/>
<path d="M155.417 18.353C157.01 18.353 158.599 18.353 160.231 18.353C160.191 18.5529 160.17 18.714 160.127 18.8703C159.336 21.7274 156.964 23.6782 154.001 23.8987C152.983 23.9751 151.97 23.9436 150.974 23.6806C148.513 23.0324 146.857 21.5033 146.073 19.0909C145.466 17.2261 145.46 15.319 146.078 13.4579C146.963 10.7971 148.854 9.24615 151.601 8.75422C153.075 8.49008 154.541 8.5749 155.957 9.08985C158.249 9.92347 159.598 11.6016 160.194 13.928C160.213 14.0031 160.203 14.0855 160.208 14.2018C158.593 14.2018 157.008 14.2018 155.413 14.2018C155.367 14.1206 155.323 14.0516 155.289 13.9777C154.833 12.9756 154.042 12.52 152.957 12.5516C151.859 12.5831 151.102 13.1477 150.708 14.134C150.132 15.5795 150.131 17.0638 150.738 18.4972C151.28 19.7742 152.565 20.311 153.887 19.8966C154.402 19.7355 154.803 19.4192 155.084 18.9588C155.203 18.7661 155.304 18.5614 155.417 18.353Z" fill="#1A44D1"/>
<path d="M122.447 23.7137C120.871 23.7137 119.402 23.7137 117.874 23.7137C117.874 18.7313 117.874 13.7636 117.874 8.71337C116.197 8.64067 114.572 8.72427 112.926 8.6649C112.926 7.43628 112.926 6.2634 112.926 5.04932C117.732 5.04932 122.512 5.04932 127.335 5.04932C127.335 6.23311 127.335 7.42295 127.335 8.68429C125.716 8.68429 124.111 8.68429 122.447 8.68429C122.447 13.7199 122.447 18.6865 122.447 23.7137Z" fill="#1B45D1"/>
<path d="M35.0304 24.5146C34.7445 24.6661 34.5663 24.7642 34.3846 24.8551C32.7367 25.679 31.0998 26.5272 29.4325 27.3099C28.8037 27.6056 28.107 27.7643 27.4321 27.9545C27.2213 28.0139 26.968 28.0151 26.756 27.9594C26.1175 27.7934 25.4535 27.6613 24.8622 27.3814C23.0471 26.5224 21.2623 25.6015 19.4655 24.7037C19.3782 24.66 19.297 24.6031 19.1553 24.5183C19.3661 24.3971 19.5151 24.3014 19.6739 24.2226C21.5616 23.2775 23.4554 22.3434 25.3396 21.3874C26.5185 20.7888 27.6647 20.7936 28.8461 21.4007C30.6866 22.347 32.5489 23.2533 34.4016 24.1778C34.5833 24.2687 34.7626 24.3705 35.0304 24.5146Z" fill="#1A44D1"/>
</svg>
